<mxfile host="Electron" modified="2023-10-03T13:53:00.854Z" agent="Mozilla/5.0 (X11; Linux x86_64) AppleWebKit/537.36 (KHTML, like Gecko) draw.io/21.6.8 Chrome/114.0.5735.289 Electron/25.5.0 Safari/537.36" etag="uQiXDXBAhMy8tizP9vfd" version="21.6.8" type="device">
  <diagram name="第 1 页" id="HZikUI6Vs4B1E_cT7dUW">
    <mxGraphModel dx="779" dy="482" grid="1" gridSize="10" guides="1" tooltips="1" connect="1" arrows="1" fold="1" page="1" pageScale="1" pageWidth="827" pageHeight="1169" math="0" shadow="0">
      <root>
        <mxCell id="0" />
        <mxCell id="1" parent="0" />
        <mxCell id="2mwDWn0uZFhYs7bkowW--1" value="" style="rounded=0;whiteSpace=wrap;html=1;" vertex="1" parent="1">
          <mxGeometry x="60" y="340" width="660" height="80" as="geometry" />
        </mxCell>
        <mxCell id="2mwDWn0uZFhYs7bkowW--18" value="" style="edgeStyle=orthogonalEdgeStyle;rounded=0;orthogonalLoop=1;jettySize=auto;html=1;" edge="1" parent="1" source="2mwDWn0uZFhYs7bkowW--14" target="2mwDWn0uZFhYs7bkowW--17">
          <mxGeometry relative="1" as="geometry" />
        </mxCell>
        <mxCell id="2mwDWn0uZFhYs7bkowW--14" value="" style="rounded=1;whiteSpace=wrap;html=1;" vertex="1" parent="1">
          <mxGeometry x="100" y="350" width="80" height="60" as="geometry" />
        </mxCell>
        <mxCell id="2mwDWn0uZFhYs7bkowW--21" value="" style="edgeStyle=orthogonalEdgeStyle;rounded=0;orthogonalLoop=1;jettySize=auto;html=1;" edge="1" parent="1" source="2mwDWn0uZFhYs7bkowW--2" target="2mwDWn0uZFhYs7bkowW--20">
          <mxGeometry relative="1" as="geometry" />
        </mxCell>
        <mxCell id="2mwDWn0uZFhYs7bkowW--2" value="K&amp;nbsp; &amp;nbsp; &amp;nbsp;V" style="rounded=0;whiteSpace=wrap;html=1;" vertex="1" parent="1">
          <mxGeometry x="70" y="360" width="60" height="40" as="geometry" />
        </mxCell>
        <mxCell id="2mwDWn0uZFhYs7bkowW--6" value="" style="endArrow=none;html=1;rounded=0;entryX=0.5;entryY=0;entryDx=0;entryDy=0;" edge="1" parent="1" target="2mwDWn0uZFhYs7bkowW--2">
          <mxGeometry width="50" height="50" relative="1" as="geometry">
            <mxPoint x="100" y="400" as="sourcePoint" />
            <mxPoint x="150" y="490" as="targetPoint" />
          </mxGeometry>
        </mxCell>
        <mxCell id="2mwDWn0uZFhYs7bkowW--15" value="" style="rounded=1;whiteSpace=wrap;html=1;" vertex="1" parent="1">
          <mxGeometry x="180" y="350" width="80" height="60" as="geometry" />
        </mxCell>
        <mxCell id="2mwDWn0uZFhYs7bkowW--7" value="K&amp;nbsp; &amp;nbsp; V" style="rounded=0;whiteSpace=wrap;html=1;" vertex="1" parent="1">
          <mxGeometry x="150" y="360" width="60" height="40" as="geometry" />
        </mxCell>
        <mxCell id="2mwDWn0uZFhYs7bkowW--16" value="" style="rounded=1;whiteSpace=wrap;html=1;" vertex="1" parent="1">
          <mxGeometry x="260" y="350" width="80" height="60" as="geometry" />
        </mxCell>
        <mxCell id="2mwDWn0uZFhYs7bkowW--8" value="" style="endArrow=none;html=1;rounded=0;entryX=0.5;entryY=0;entryDx=0;entryDy=0;" edge="1" parent="1" target="2mwDWn0uZFhYs7bkowW--7">
          <mxGeometry width="50" height="50" relative="1" as="geometry">
            <mxPoint x="180" y="400" as="sourcePoint" />
            <mxPoint x="230" y="490" as="targetPoint" />
          </mxGeometry>
        </mxCell>
        <mxCell id="2mwDWn0uZFhYs7bkowW--11" value="K&amp;nbsp; &amp;nbsp; V" style="rounded=0;whiteSpace=wrap;html=1;" vertex="1" parent="1">
          <mxGeometry x="310" y="360" width="60" height="40" as="geometry" />
        </mxCell>
        <mxCell id="2mwDWn0uZFhYs7bkowW--12" value="" style="endArrow=none;html=1;rounded=0;entryX=0.5;entryY=0;entryDx=0;entryDy=0;" edge="1" parent="1" target="2mwDWn0uZFhYs7bkowW--11">
          <mxGeometry width="50" height="50" relative="1" as="geometry">
            <mxPoint x="340" y="400" as="sourcePoint" />
            <mxPoint x="390" y="490" as="targetPoint" />
          </mxGeometry>
        </mxCell>
        <mxCell id="2mwDWn0uZFhYs7bkowW--9" value="K&amp;nbsp; &amp;nbsp; V" style="rounded=0;whiteSpace=wrap;html=1;" vertex="1" parent="1">
          <mxGeometry x="230" y="360" width="60" height="40" as="geometry" />
        </mxCell>
        <mxCell id="2mwDWn0uZFhYs7bkowW--10" value="" style="endArrow=none;html=1;rounded=0;entryX=0.5;entryY=0;entryDx=0;entryDy=0;" edge="1" parent="1" target="2mwDWn0uZFhYs7bkowW--9">
          <mxGeometry width="50" height="50" relative="1" as="geometry">
            <mxPoint x="260" y="400" as="sourcePoint" />
            <mxPoint x="310" y="490" as="targetPoint" />
          </mxGeometry>
        </mxCell>
        <mxCell id="2mwDWn0uZFhYs7bkowW--17" value="Pointer&amp;amp;Key&lt;br&gt;V &amp;lt; K" style="rounded=1;whiteSpace=wrap;html=1;" vertex="1" parent="1">
          <mxGeometry x="100" y="210" width="80" height="60" as="geometry" />
        </mxCell>
        <mxCell id="2mwDWn0uZFhYs7bkowW--20" value="V &amp;gt;= K" style="rounded=0;whiteSpace=wrap;html=1;" vertex="1" parent="1">
          <mxGeometry x="60" y="480" width="80" height="40" as="geometry" />
        </mxCell>
      </root>
    </mxGraphModel>
  </diagram>
</mxfile>
